<?xml version="1.0" encoding="UTF-8"?>
<svg width="392px" height="128px" viewBox="0 0 392 128" version="1.1" xmlns="http://www.w3.org/2000/svg" xmlns:xlink="http://www.w3.org/1999/xlink">
    <title>fomille</title>
    <g id="Page-1" stroke="none" stroke-width="1" fill="none" fill-rule="evenodd">
        <g id="Extra-Large" transform="translate(-279, -73)" fill="#ffffff" fill-rule="nonzero">
            <path d="M279,126.76 L279,113.04 L286,113.04 L286,100.3 C286,91.899958 288.263311,85.2500245 292.79,80.35 C297.316689,75.4499755 303.826624,73 312.32,73 L312.32,86.72 C308.679982,86.72 305.786677,87.886655 303.64,90.22 C301.493323,92.553345 300.42,95.9133114 300.42,100.3 L300.42,113.04 L314.7,113.04 L314.7,126.76 L300.42,126.76 L300.42,200.4 L286,200.4 L286,126.76 L279,126.76 Z M338.92,130.4 C335.653317,133.666683 334.02,137.959973 334.02,143.28 C334.02,148.600027 335.653317,152.91665 338.92,156.23 C342.186683,159.54335 346.293309,161.2 351.24,161.2 C356.186691,161.2 360.293317,159.54335 363.56,156.23 C366.826683,152.91665 368.46,148.600027 368.46,143.28 C368.46,137.959973 366.826683,133.64335 363.56,130.33 C360.293317,127.01665 356.186691,125.36 351.24,125.36 C346.293309,125.36 342.186683,127.039983 338.92,130.4 Z M373.78,121.88 C379.846697,127.946697 382.88,135.413289 382.88,144.28 C382.88,153.146711 379.846697,160.636636 373.78,166.75 C367.713303,172.863364 360.200045,175.92 351.24,175.92 C342.279955,175.92 334.766697,172.863364 328.7,166.75 C322.633303,160.636636 319.6,153.146711 319.6,144.28 C319.6,135.413289 322.633303,127.923364 328.7,121.81 C334.766697,115.696636 342.279955,112.64 351.24,112.64 C360.200045,112.64 367.713303,115.719969 373.78,121.88 Z M489,136.42 L489,173.52 L474.58,173.52 L474.58,137.68 C474.58,134.133316 473.786675,131.193345 472.2,128.86 C470.613325,126.526655 468.000018,125.36 464.36,125.36 C460.813316,125.36 457.733346,126.736653 455.12,129.49 C452.506654,132.243347 451.2,136.513304 451.2,142.3 L451.2,173.52 L436.78,173.52 L436.78,137.68 C436.78,134.133316 435.986675,131.193345 434.4,128.86 C432.813325,126.526655 430.200018,125.36 426.56,125.36 C423.013316,125.36 419.933346,126.736653 417.32,129.49 C414.706654,132.243347 413.4,136.513304 413.4,142.3 L413.4,173.52 L398.98,173.52 L398.98,113.04 L413.4,113.04 L413.4,117.66 C417.413353,113.646647 422.7333,111.64 429.36,111.64 C437.573374,111.64 443.63998,114.766635 447.56,121.02 C452.413358,114.766635 458.946626,111.64 467.16,111.64 C473.226697,111.64 478.383312,113.576647 482.63,117.45 C486.876688,121.323353 489,127.646623 489,136.42 Z M508.32,173.52 L508.32,113.04 L522.74,113.04 L522.74,173.52 L508.32,173.52 Z M509.44,98.34 C507.853325,96.7533254 507.06,94.7466788 507.06,92.32 C507.06,89.8933212 507.876658,87.8633415 509.51,86.23 C511.143342,84.5966585 513.126655,83.78 515.46,83.78 C517.793345,83.78 519.799992,84.5966585 521.48,86.23 C523.160008,87.8633415 524,89.8933212 524,92.32 C524,94.653345 523.183342,96.6366585 521.55,98.27 C519.916658,99.9033415 517.886679,100.72 515.46,100.72 C513.126655,100.72 511.120008,99.9266746 509.44,98.34 Z M542.34,173.52 L542.34,73 L556.76,73 L556.76,173.52 L542.34,173.52 Z M576.36,173.52 L576.36,73 L590.78,73 L590.78,173.52 L576.36,173.52 Z M670.16,142.58 L623.26,151.54 C624.753341,154.526682 626.946652,156.883325 629.84,158.61 C632.733348,160.336675 635.906649,161.2 639.36,161.2 C642.533349,161.2 645.333321,160.52334 647.76,159.17 C650.186679,157.81666 651.819996,156.440007 652.66,155.04 L654.06,153.08 L666.66,159.52 C666.473332,159.893335 666.170002,160.429997 665.75,161.13 C665.329998,161.830004 664.326675,163.066658 662.74,164.84 C661.153325,166.613342 659.403343,168.17666 657.49,169.53 C655.576657,170.88334 652.96335,172.119994 649.65,173.24 C646.33665,174.360006 642.813352,174.92 639.08,174.92 C629.559952,174.92 621.813363,171.886697 615.84,165.82 C609.866637,159.753303 606.88,152.240045 606.88,143.28 C606.88,134.413289 609.913303,126.923364 615.98,120.81 C622.046697,114.696636 629.559955,111.64 638.52,111.64 C647.480045,111.64 654.946637,114.603304 660.92,120.53 C666.893363,126.456696 669.973332,133.806623 670.16,142.58 Z M638.52,125.36 C633.946644,125.36 630.073349,126.759986 626.9,129.56 C623.726651,132.360014 621.906669,136.09331 621.44,140.76 L653.78,134.6 C650.793318,128.439969 645.706703,125.36 638.52,125.36 Z" id="fomille"></path>
        </g>
    </g>
</svg>
