<?xml version="1.0" encoding="UTF-8"?>
<svg width="210px" height="99px" viewBox="0 0 210 99" version="1.1" xmlns="http://www.w3.org/2000/svg" xmlns:xlink="http://www.w3.org/1999/xlink">
    <title>ogar</title>
    <g id="Ogar" stroke="none" stroke-width="1" fill="none" fill-rule="evenodd">
        <g id="Extra-Large" transform="translate(-147, -222)" fill="#0654D2" fill-rule="nonzero">
            <path d="M185.6,292.639063 C191.4,292.639063 196.679948,291.2625 201.439844,288.509375 C206.19974,285.75625 209.953125,281.973177 212.7,277.160156 C215.446875,272.347135 216.820312,266.973958 216.820312,261.040625 C216.820312,255.146875 215.446875,249.776823 212.7,244.930469 C209.953125,240.084115 206.192969,236.260938 201.419531,233.460938 C196.646094,230.660938 191.372917,229.260938 185.6,229.260938 C179.827083,229.260938 174.553906,230.660938 169.780469,233.460938 C165.007031,236.260938 161.246875,240.084115 158.5,244.930469 C155.753125,249.776823 154.379687,255.146875 154.379687,261.040625 C154.379687,266.973958 155.753125,272.347135 158.5,277.160156 C161.246875,281.973177 165.00026,285.75625 169.760156,288.509375 C174.520052,291.2625 179.8,292.639063 185.6,292.639063 Z M185.6,299.159375 C178.70625,299.159375 172.332813,297.459375 166.479688,294.059375 C160.626563,290.659375 155.973437,286.039583 152.520312,280.2 C149.067187,274.360417 147.340625,267.973958 147.340625,261.040625 C147.340625,254.146875 149.067187,247.766667 152.520312,241.9 C155.973437,236.033333 160.633333,231.373437 166.5,227.920312 C172.366667,224.467187 178.733333,222.740625 185.6,222.740625 C192.466667,222.740625 198.833333,224.467187 204.7,227.920312 C210.566667,231.373437 215.226562,236.033333 218.679688,241.9 C222.132812,247.766667 223.859375,254.146875 223.859375,261.040625 C223.859375,267.973958 222.132812,274.360417 218.679688,280.2 C215.226562,286.039583 210.573438,290.659375 204.720313,294.059375 C198.867188,297.459375 192.49375,299.159375 185.6,299.159375 Z M261.578662,299.159375 C256.698454,299.159375 252.228402,297.916146 248.168506,295.429688 C244.10861,292.943229 240.905485,289.573438 238.559131,285.320312 C236.212777,281.067187 235.0396,276.440625 235.0396,271.440625 C235.0396,266.519792 236.212777,261.942708 238.559131,257.709375 C240.905485,253.476042 244.10861,250.116146 248.168506,247.629687 C252.228402,245.143229 256.698454,243.9 261.578662,243.9 C266.511995,243.9 270.918766,245.216667 274.798975,247.85 C278.679183,250.483333 281.685954,253.923437 283.819287,258.170313 C285.95262,262.417187 287.019287,266.840625 287.019287,271.440625 C287.019287,276.119792 285.95262,280.592708 283.819287,284.859375 C281.685954,289.126042 278.679183,292.576042 274.798975,295.209375 C270.918766,297.842708 266.511995,299.159375 261.578662,299.159375 Z M261.978662,293.120312 C265.95262,293.120312 269.526058,292.183594 272.698975,290.310156 C275.871891,288.436719 278.351839,285.843229 280.138818,282.529688 C281.925798,279.216146 282.819287,275.519792 282.819287,271.440625 C282.819287,267.4 281.925798,263.736458 280.138818,260.45 C278.351839,257.163542 275.871891,254.583594 272.698975,252.710156 C269.526058,250.836719 265.95262,249.9 261.978662,249.9 C258.35262,249.9 255.009652,250.843229 251.949756,252.729688 C248.88986,254.616146 246.479704,257.202865 244.719287,260.489844 C242.95887,263.776823 242.078662,267.427083 242.078662,271.440625 C242.078662,275.49375 242.95887,279.176823 244.719287,282.489844 C246.479704,285.802865 248.873193,288.402865 251.899756,290.289844 C254.926318,292.176823 258.285954,293.120312 261.978662,293.120312 Z M237.678662,309.659375 C236.905745,308.872917 236.579183,308.103125 236.698975,307.35 C236.818766,306.596875 237.311995,305.920313 238.178662,305.320312 L238.419287,305.179688 C239.25887,304.646354 240.022152,304.436458 240.709131,304.55 C241.39611,304.663542 242.106266,305.066667 242.8396,305.759375 C245.198975,308.680208 247.845329,310.860417 250.778662,312.3 C253.711995,313.739583 257.398975,314.459375 261.8396,314.459375 C265.572933,314.459375 269.006266,313.596094 272.1396,311.869531 C275.272933,310.142969 277.762777,307.679688 279.609131,304.479688 C281.455485,301.279688 282.378662,297.572917 282.378662,293.359375 L282.378662,278.120312 L283.598975,271.4 L282.378662,264.820312 L282.378662,248.179688 C282.378662,247.153646 282.661995,246.357292 283.228662,245.790625 C283.795329,245.223958 284.592204,244.940625 285.619287,244.940625 L285.819287,244.940625 C286.845329,244.940625 287.641683,245.223958 288.20835,245.790625 C288.775016,246.357292 289.05835,247.153646 289.05835,248.179688 L289.05835,293.359375 C289.05835,298.613542 287.801839,303.330469 285.288818,307.510156 C282.775798,311.689844 279.432568,314.959635 275.259131,317.319531 C271.085693,319.679427 266.612516,320.859375 261.8396,320.859375 C256.332308,320.859375 251.645329,319.876042 247.778662,317.909375 C243.911995,315.942708 240.545329,313.192708 237.678662,309.659375 Z M356.278271,294.840625 C356.278271,295.866667 355.998324,296.659635 355.438428,297.219531 C354.878532,297.779427 354.085042,298.059375 353.057959,298.059375 L352.698584,298.059375 C351.671501,298.059375 350.878011,297.779427 350.318115,297.219531 C349.758219,296.659635 349.478271,295.866667 349.478271,294.840625 L349.478271,278.620313 L351.257959,271.720312 L349.478271,265.1 L349.478271,248.159375 C349.478271,247.133333 349.758219,246.340365 350.318115,245.780469 C350.878011,245.220573 351.671501,244.940625 352.698584,244.940625 L353.057959,244.940625 C354.085042,244.940625 354.878532,245.220573 355.438428,245.780469 C355.998324,246.340365 356.278271,247.133333 356.278271,248.159375 L356.278271,294.840625 Z M329.139209,293.120313 C333.112126,293.120313 336.675146,292.183594 339.828271,290.310156 C342.981396,288.436719 345.451449,285.853385 347.238428,282.560156 C349.025407,279.266927 349.918896,275.560417 349.918896,271.440625 C349.918896,267.4 349.025407,263.726302 347.238428,260.419531 C345.451449,257.11276 342.971501,254.522917 339.798584,252.65 C336.625667,250.777083 333.072542,249.840625 329.139209,249.840625 C325.472542,249.840625 322.109261,250.783854 319.049365,252.670312 C315.989469,254.556771 313.579313,257.153385 311.818896,260.460156 C310.05848,263.766927 309.178271,267.427083 309.178271,271.440625 C309.178271,275.533333 310.05848,279.226302 311.818896,282.519531 C313.579313,285.81276 315.982699,288.402865 319.029053,290.289844 C322.075407,292.176823 325.445459,293.120313 329.139209,293.120313 Z M328.739209,299.159375 C323.818376,299.159375 319.328011,297.916146 315.268115,295.429688 C311.208219,292.943229 308.005094,289.583333 305.65874,285.35 C303.312386,281.116667 302.139209,276.480208 302.139209,271.440625 C302.139209,266.480208 303.312386,261.883333 305.65874,257.65 C308.005094,253.416667 311.208219,250.056771 315.268115,247.570312 C319.328011,245.083854 323.818376,243.840625 328.739209,243.840625 C333.631917,243.840625 338.018376,245.157292 341.898584,247.790625 C345.778792,250.423958 348.785563,253.863802 350.918896,258.110156 C353.05223,262.35651 354.118896,266.8 354.118896,271.440625 C354.118896,276.160417 353.05223,280.64349 350.918896,284.889844 C348.785563,289.136198 345.778792,292.576042 341.898584,295.209375 C338.018376,297.842708 333.631917,299.159375 328.739209,299.159375 Z" id="ogar"></path>
        </g>
    </g>
</svg>